#define bullet_width 12
#define bullet_height 12
static unsigned char bullet_bits[] = {
   0x00, 0x00, 0xff, 0x0f, 0xff, 0x0f, 0x00, 0x00, 0x00, 0x00, 0xff, 0x0f,
   0xff, 0x0f, 0x00, 0x00, 0x00, 0x00, 0xff, 0x0f, 0xff, 0x0f, 0x00, 0x00 };
