#define close_width 12
#define close_height 12
static unsigned char close_bits[] = {
   0x63, 0x0c, 0x67, 0x0e, 0x6e, 0x07, 0xfc, 0x03, 0xf8, 0x01, 0xff, 0x0f,
   0xff, 0x0f, 0xf8, 0x01, 0xfc, 0x03, 0x6e, 0x07, 0x67, 0x0e, 0x63, 0x0c };
