#define desk_toggled_width 12
#define desk_toggled_height 12
static unsigned char desk_toggled_bits[] = {
   0xf8, 0x01, 0xfc, 0x03, 0xfe, 0x07, 0xff, 0x0f, 0xff, 0x0f, 0x9f, 0x0f,
   0x9f, 0x0f, 0xff, 0x0f, 0xff, 0x0f, 0xfe, 0x07, 0xfc, 0x03, 0xf8, 0x01 };
